<svg id="SvgjsSvg1001" width="288" height="288" xmlns="http://www.w3.org/2000/svg" version="1.1" xmlns:xlink="http://www.w3.org/1999/xlink" xmlns:svgjs="http://svgjs.com/svgjs"><defs id="SvgjsDefs1002"></defs><g id="SvgjsG1008"><svg xmlns="http://www.w3.org/2000/svg" fill="none" viewBox="0 0 48 48" width="288" height="288"><rect width="48" height="48" fill="url(#a)" rx="24"></rect><path fill="#e3c4a8" d="M25.6789 26.4739H10.8778C9.83947 26.4739 9 27.3133 9 28.3516C9 29.3899 9.83947 30.2294 10.8778 30.2294H27.9323C27.9323 30.2294 28.8159 29.3457 27.866 27.9098C26.894 26.4739 25.6789 26.4739 25.6789 26.4739Z" class="colorfff svgShape"></path><path fill="#e3c4a8" d="M24.9278 10.6786L15.7379 26.5843C15.2298 27.4901 15.5169 28.6388 16.4227 29.1469 17.3284 29.655 18.4772 29.3678 18.9853 28.4621L28.1753 12.5563C28.6834 11.6506 28.3962 10.5018 27.4904 9.99375 26.5847 9.46356 25.4359 9.77284 24.9278 10.6786zM36.1723 33.4106L26.7393 17.0409C26.7393 17.0409 25.3697 18.1013 25.3697 20.2 25.3697 22.2986 26.2312 23.7125 26.2312 23.7125L32.9249 35.3104C33.433 36.2162 34.5817 36.5254 35.4875 35.9952 36.3711 35.465 36.6804 34.3163 36.1723 33.4106z" class="colorfff svgShape"></path><path fill="#e3c4a8" d="M37.1222 26.4739H31.8866C30.8483 26.4739 30.0088 27.3133 30.0088 28.3516 30.0088 29.3899 30.8483 30.2294 31.8866 30.2294H37.1222C38.1605 30.2294 39 29.3899 39 28.3516 39 27.3354 38.1605 26.4739 37.1222 26.4739zM25.0383 14.1248L23.0501 10.6565C22.542 9.77285 21.3711 9.46357 20.4875 9.97167 19.6038 10.4798 19.2946 11.6506 19.8027 12.5343L21.7909 16.0026C22.299 16.8862 23.4698 17.1955 24.3535 16.6874 25.2371 16.1793 25.5464 15.0306 25.0383 14.1248zM11.8056 33.3885L12.9985 31.334C12.9985 31.334 13.2857 30.7596 14.4124 30.7596 15.6053 30.7596 16.754 31.7538 16.8424 32.1293L15.053 35.2663C14.5449 36.172 13.3962 36.4813 12.4904 35.9511 11.5847 35.443 11.2975 34.2943 11.8056 33.3885z" class="colorfff svgShape"></path><defs><linearGradient id="a" x1="23.996" x2="23.996" y1="47.991" gradientUnits="userSpaceOnUse"><stop stop-color="#4592af" class="stopColor4780E8 svgShape"></stop><stop offset="1" stop-color="#000000" class="stopColor11C8F6 svgShape"></stop></linearGradient></defs></svg></g></svg>